<svg width="30" height="16" viewBox="0 0 30 16" fill="none" xmlns="http://www.w3.org/2000/svg">
    <path d="M0.528 16L5.832 0.423999H9.384L14.472 16H11.496L10.416 12.64H4.632L3.528 16H0.528ZM5.352 10.504H9.744L7.56 3.808L5.352 10.504ZM17.2554 16V0.423999H23.0154C24.8794 0.423999 26.3074 0.859999 27.2994 1.732C28.2994 2.604 28.7994 3.76 28.7994 5.2C28.7994 6.616 28.2994 7.76 27.2994 8.632C26.3074 9.496 24.8794 9.928 23.0154 9.928H20.0874V16H17.2554ZM25.6794 16L21.5514 8.704H24.5754L29.3754 16H25.6794ZM20.0874 8.032H22.7274C23.7674 8.032 24.5554 7.796 25.0914 7.324C25.6274 6.844 25.8954 6.224 25.8954 5.464C25.8954 4.688 25.6514 4.064 25.1634 3.592C24.6754 3.112 23.9594 2.872 23.0154 2.872H20.0874V8.032Z" fill="black"/>

    <style>
        path { fill: #000; }
        
        @media (prefers-color-scheme: dark) {
            path { fill: #FFF; }
        }
    </style>
</svg>
